# xmcd CD database file
#
# Track frame offsets:
#	150
#	25168
#	45613
#
# Disc length: 918 seconds
#
# Revision: 0
# Processed by: cddbd v1.5PL3 Copyright (c) Steve Scherf et al.
# Submitted via: CDex 1.51
#
DISCID=1b039403
DTITLE=くるり - 東京
DYEAR=1900
DGENRE=Rock
TTITLE0=東京
TTITLE1=尼崎の魚
TTITLE2=ラブソング
EXTD=
EXTT0=
EXTT1=
EXTT2=
PLAYORDER=
